<svg width="560" height="560" viewBox="0 0 560 560" xmlns="http://www.w3.org/2000/svg">
  <defs>
    <linearGradient id="g1" x1="0" x2="1" y1="0" y2="1">
      <stop offset="0%" stop-color="#7EC8E3"/>
      <stop offset="100%" stop-color="#B87333"/>
    </linearGradient>
  </defs>
  <rect width="560" height="560" rx="36" fill="url(#g1)" opacity="0.12"/>
  <g transform="translate(100,40)">
    <path d="M120,60 C140,40 180,40 200,60 L260,120 C300,160 320,220 320,300 L320,360 L0,360 L0,300 C0,220 20,160 60,120 Z" fill="#fff"/>
    <path d="M160,60 C180,40 220,40 240,60 L280,100 C300,120 320,160 320,220 L320,240 L0,240 L0,220 C0,160 20,120 40,100 Z" fill="#f3f6f9"/>
    <circle cx="160" cy="120" r="26" fill="#7EC8E3"/>
    <circle cx="200" cy="120" r="26" fill="#B87333" opacity="0.85"/>
  </g>
</svg>
